<?xml version="1.0" encoding="UTF-8"?>
<svg id="Layer_1" xmlns="http://www.w3.org/2000/svg" version="1.1" xmlns:xlink="http://www.w3.org/1999/xlink" viewBox="0 0 1348.09 1276.75">
  <!-- Generator: Adobe Illustrator 30.6.0, SVG Export Plug-In . SVG Version: 2.1.4 Build 109)  -->
  <defs>
    <style>
      .st0 {
        fill: #0c0b0b;
      }

      .st1 {
        fill: url(#linear-gradient2);
      }

      .st2 {
        fill: url(#linear-gradient10);
      }

      .st3 {
        fill: #f9da07;
      }

      .st4 {
        fill: url(#linear-gradient1);
      }

      .st5 {
        fill: url(#linear-gradient9);
      }

      .st6 {
        fill: url(#linear-gradient8);
      }

      .st7 {
        fill: url(#linear-gradient11);
      }

      .st8 {
        fill: url(#linear-gradient16);
      }

      .st9 {
        fill: url(#linear-gradient12);
      }

      .st10 {
        fill: url(#New_Gradient_Swatch_2);
      }

      .st11 {
        fill: url(#linear-gradient7);
      }

      .st12 {
        fill: url(#linear-gradient4);
      }

      .st13 {
        fill: url(#linear-gradient14);
      }

      .st14 {
        fill: url(#linear-gradient5);
      }

      .st15 {
        fill: url(#linear-gradient3);
      }

      .st16 {
        fill: url(#linear-gradient15);
      }

      .st17 {
        fill: url(#linear-gradient17);
      }

      .st18 {
        fill: url(#linear-gradient6);
      }

      .st19 {
        fill: url(#linear-gradient13);
      }

      .st20 {
        fill: url(#linear-gradient);
      }
    </style>
    <linearGradient id="linear-gradient" x1="861.79" y1="423.71" x2="875.76" y2="823.39" gradientUnits="userSpaceOnUse">
      <stop offset="0" stop-color="#060707"/>
      <stop offset="1" stop-color="#202121"/>
    </linearGradient>
    <linearGradient id="linear-gradient1" x1="116.3" y1="406.52" x2="550.36" y2="743.78" gradientUnits="userSpaceOnUse">
      <stop offset="0" stop-color="#e37d25"/>
      <stop offset=".57" stop-color="#e37b26"/>
      <stop offset="1" stop-color="#d8e264"/>
    </linearGradient>
    <linearGradient id="linear-gradient2" x1="862.49" y1="464.06" x2="1065.85" y2="799.73" gradientUnits="userSpaceOnUse">
      <stop offset="0" stop-color="#f9af18"/>
      <stop offset=".5" stop-color="#f8dc62"/>
      <stop offset="1" stop-color="#f9b217"/>
    </linearGradient>
    <linearGradient id="linear-gradient3" x1="685.4" y1="329.73" x2="1104.23" y2="587.05" gradientUnits="userSpaceOnUse">
      <stop offset="0" stop-color="#92191c"/>
      <stop offset=".57" stop-color="#cb3428"/>
      <stop offset="1" stop-color="#ca2027"/>
    </linearGradient>
    <linearGradient id="New_Gradient_Swatch_2" data-name="New Gradient Swatch 2" x1="420.68" y1="208.69" x2="789.16" y2="806.7" gradientUnits="userSpaceOnUse">
      <stop offset="0" stop-color="#ca2027"/>
      <stop offset=".57" stop-color="#cb3428"/>
      <stop offset="1" stop-color="#d7ba24"/>
    </linearGradient>
    <linearGradient id="linear-gradient4" x1="99.34" y1="910.51" x2="92.68" y2="1075.84" gradientUnits="userSpaceOnUse">
      <stop offset="0" stop-color="#f7c274"/>
      <stop offset=".49" stop-color="#ddaa58"/>
      <stop offset="1" stop-color="#b7823a"/>
    </linearGradient>
    <linearGradient id="linear-gradient5" x1="246.92" y1="916.46" x2="240.26" y2="1081.79" gradientUnits="userSpaceOnUse">
      <stop offset="0" stop-color="#e3af5c"/>
      <stop offset=".49" stop-color="#ddaa58"/>
      <stop offset="1" stop-color="#b7823a"/>
    </linearGradient>
    <linearGradient id="linear-gradient6" x1="380.08" y1="921.83" x2="373.41" y2="1087.16" xlink:href="#linear-gradient5"/>
    <linearGradient id="linear-gradient7" x1="555.06" y1="928.89" x2="548.4" y2="1094.22" xlink:href="#linear-gradient5"/>
    <linearGradient id="linear-gradient8" x1="792.73" y1="938.47" x2="786.07" y2="1103.8" xlink:href="#linear-gradient5"/>
    <linearGradient id="linear-gradient9" x1="983.11" y1="946.14" x2="976.44" y2="1111.48" xlink:href="#linear-gradient5"/>
    <linearGradient id="linear-gradient10" x1="1171" y1="953.72" x2="1164.33" y2="1119.05" xlink:href="#linear-gradient5"/>
    <linearGradient id="linear-gradient11" x1="457.66" y1="1150.09" x2="475.44" y2="1564.31" xlink:href="#linear-gradient5"/>
    <linearGradient id="linear-gradient12" x1="564.11" y1="1145.52" x2="581.89" y2="1559.74" xlink:href="#linear-gradient5"/>
    <linearGradient id="linear-gradient13" x1="670.14" y1="1140.97" x2="687.92" y2="1555.19" xlink:href="#linear-gradient5"/>
    <linearGradient id="linear-gradient14" x1="782.25" y1="1136.16" x2="800.03" y2="1550.38" xlink:href="#linear-gradient5"/>
    <linearGradient id="linear-gradient15" x1="886.56" y1="1131.68" x2="904.34" y2="1545.91" xlink:href="#linear-gradient5"/>
    <linearGradient id="linear-gradient16" x1="987.56" y1="1233.47" x2="1348.09" y2="1233.47" xlink:href="#linear-gradient5"/>
    <linearGradient id="linear-gradient17" x1="682.45" y1="1236.53" x2="-437.55" y2="1225.86" xlink:href="#linear-gradient5"/>
  </defs>
  <g>
    <path class="st0" d="M683.1,12.04c61.79,125.82,181.99,171.88,272.99,267.37,118.04,123.87,149.97,294.62,83.13,407.79-84.25,142.67-341.26,207.34-341.27,207.35-16.71,14.46-28.33,21.83-28.33,21.83,0,0,1.12-52.8-155.03-96.61-102.56-28.78-193.01-61.92-243.97-163.72-26.62-53.19-42.47-125.13-43.62-224.98,0,0,51.34,64.4,213.97,108.44-21.94-27.02-24.12-33.17-24.12-33.17-138.18-262.88,110.09-401.05,110.09-401.05,23.28,80.86,74.62,124.65,130.88,188.54-4.13-20.46-7.36-41.2-9.55-62.72-11.23-110.09,34.83-219.06,34.83-219.06M697.95,894.55s1.51-1.22,4.11-3.61c-1.4,1.25-2.77,2.46-4.11,3.61M682.76,0l-4.26,10.09c-.48,1.13-11.79,28.08-21.87,69-9.32,37.8-19.2,94.94-13.32,152.52,1.56,15.25,3.63,30.26,6.29,45.48-5.99-6.63-11.9-13.06-17.7-19.37-43.65-47.53-81.35-88.58-100.14-153.83l-1.74-6.04-5.5,3.06c-.65.36-16.14,9.04-37.34,26.18-19.54,15.79-47.76,42.03-71.25,77.37-26.49,39.86-41.68,82.89-45.14,127.92-4.32,56.11,9.66,115.35,41.56,176.09.76,1.73,3.75,7.33,15.12,22.04-74.92-21.78-123.58-47.6-151.72-65.94-32.12-20.92-44.7-36.48-44.82-36.63l-9.08-11.39.17,14.56c1.11,95.71,15.55,170.02,44.15,227.16,12.58,25.14,27.65,46.63,46.07,65.72,16.78,17.39,35.92,32.31,58.5,45.6,40.39,23.77,86.18,39.17,142.52,54.98,78.1,21.91,115.19,45.91,132.55,62.19,17.86,16.74,18.78,28.72,18.83,29.55l-.56,9.68,8.24-5.4c.48-.3,11.72-7.47,28.03-21.5,9.27-2.41,69.17-18.52,138.92-50.26,43.69-19.88,82.09-41.77,114.14-65.08,40.26-29.28,70.59-60.91,90.14-94.02,16.79-28.44,27.71-60.71,32.46-95.92,4.63-34.37,3.25-70.54-4.1-107.49-7.38-37.13-20.57-73.87-39.19-109.2-19.23-36.5-43.79-70.54-72.99-101.18-33.56-35.22-71.35-63.99-107.89-91.81-64.57-49.16-125.56-95.58-164.22-174.32l-4.83-9.83h0Z"/>
    <path class="st20" d="M683.1,12.04s-46.06,108.97-34.83,219.06c12.81,125.5,60.66,224.68,117.96,393.19,57.29,168.51-68.28,270.26-68.28,270.26,0,0,257.01-64.67,341.27-207.35,66.84-113.18,34.9-283.93-83.13-407.79-91-95.49-211.2-141.55-272.99-267.37Z"/>
    <path class="st4" d="M227,431.06s57.29,71.9,242.65,115.71c185.36,43.81,235.91,283.1,232.54,305.56s-32.58,64.03-32.58,64.03c0,0,1.12-52.8-155.03-96.61-102.56-28.78-193.01-61.92-243.97-163.72-26.62-53.19-42.47-125.13-43.62-224.98Z"/>
    <path class="st1" d="M688.5,365.62s13.85,53.02,92.25,113.46c78.4,60.44,221.59,158.6,193.28,282.25,0,0,57.69-33.64,84.52-115.89,0,0,14.58-77.34-71.99-142.68-86.57-65.34-151.91-90.66-158.44-91.47s-139.62-45.67-139.62-45.67Z"/>
    <path class="st3" d="M469.66,546.78c-185.36-43.81-242.65-115.71-242.65-115.71,1.16,99.85,17,171.79,43.62,224.98,0,0,29.5,75.61,112.8,114.2,0,0-75.95-40.43-107.19-128.02s-32.46-183.15-32.46-183.15c0,0,76.57,55.74,144.56,73.5,67.99,17.76,81.33,14.2,81.33,14.2Z"/>
    <path class="st15" d="M648.28,231.1s32.03,35.63,202.72,119.75c170.69,84.12,219.18,155.13,219.18,155.13,0,0,5.66,84.5-11.61,139.46,0,0-47.51-81.97-257.39-201.49,0,0-51.06-23.44-98.82-60.44-38.53-29.85-42.82-50.03-54.08-152.42Z"/>
    <path class="st10" d="M795.44,528.8c75.07,256.05-125.82,387.57-125.82,387.57,21.34-87.63-25.84-152.78-135.93-271.86-110.09-119.08-116.83-138.18-116.83-138.18-138.18-262.88,110.09-401.05,110.09-401.05,0,0,14.59,77.66,129.59,181.96,0,0,13.5,54.86,58.07,115.29,44.56,60.43,73.16,100.08,80.84,126.27Z"/>
    <polygon class="st3" points="566.06 329.8 586.43 392.49 652.34 392.49 599.02 431.23 619.39 493.92 566.06 455.17 512.74 493.92 533.11 431.23 479.78 392.49 545.69 392.49 566.06 329.8"/>
  </g>
  <g>
    <path class="st12" d="M188.71,962.43v4.7c-6.27,1.02-11.85,4.36-16.76,10.03-3.56,4.23-8.85,14.18-15.87,29.84l-59.3,131.55h-4.19l-59.05-136.89c-7.11-16.51-11.87-26.2-14.29-29.08-2.41-2.88-6.96-4.7-13.65-5.46v-4.7h82.54v4.7h-2.79c-7.45,0-12.53.93-15.24,2.79-1.95,1.27-2.92,3.13-2.92,5.59,0,1.52.34,3.32,1.02,5.4.68,2.08,2.96,7.64,6.86,16.7l36.7,85.71,34.03-76.32c4.06-9.23,6.56-15.41,7.49-18.54.93-3.13,1.4-5.8,1.4-8,0-2.54-.68-4.78-2.03-6.73-1.35-1.95-3.34-3.43-5.97-4.44-3.64-1.44-8.47-2.16-14.48-2.16v-4.7h56.51Z"/>
    <path class="st14" d="M286.61,1129.92v4.7h-90.03v-4.7h5.71c4.99,0,9.02-.89,12.06-2.67,2.2-1.18,3.89-3.22,5.08-6.1.93-2.03,1.4-7.36,1.4-16v-113.27c0-8.8-.47-14.31-1.4-16.51-.93-2.2-2.82-4.13-5.65-5.78-2.84-1.65-6.67-2.48-11.49-2.48h-5.71v-4.7h90.03v4.7h-5.71c-5,0-9.02.89-12.06,2.67-2.2,1.19-3.94,3.22-5.21,6.1-.93,2.03-1.4,7.36-1.4,16v113.27c0,8.81.49,14.31,1.46,16.51.97,2.2,2.88,4.13,5.71,5.78,2.83,1.65,6.67,2.48,11.49,2.48h5.71Z"/>
    <path class="st18" d="M363.44,972.34v70.09h3.43c10.92,0,18.83-3.43,23.75-10.29,4.91-6.86,8.04-16.97,9.4-30.35h4.83v90.16h-4.83c-1.02-9.82-3.15-17.86-6.41-24.13-3.26-6.26-7.05-10.48-11.37-12.63s-10.58-3.24-18.79-3.24v48.51c0,9.48.4,15.28,1.21,17.4.8,2.12,2.3,3.85,4.51,5.21,2.2,1.36,5.76,2.03,10.67,2.03h10.29c16.08,0,28.97-3.72,38.67-11.17,9.69-7.45,16.66-18.79,20.89-34.03h4.7l-7.75,54.73h-148.83v-4.7h5.71c4.99,0,9.02-.89,12.06-2.67,2.2-1.18,3.89-3.22,5.08-6.1.93-2.03,1.4-7.36,1.4-16v-113.27c0-7.79-.21-12.57-.63-14.35-.85-2.96-2.41-5.25-4.7-6.86-3.22-2.37-7.62-3.56-13.21-3.56h-5.71v-4.7h144.13v50.92h-4.83c-2.46-12.44-5.9-21.38-10.35-26.79-4.44-5.42-10.73-9.4-18.86-11.94-4.74-1.52-13.63-2.29-26.67-2.29h-17.78Z"/>
    <path class="st11" d="M630.1,962.43v46.6h-4.57c-2.71-10.75-5.71-18.48-9.02-23.17-3.3-4.7-7.83-8.44-13.59-11.24-3.22-1.52-8.85-2.29-16.89-2.29h-12.83v132.82c0,8.81.49,14.31,1.46,16.51.97,2.2,2.88,4.13,5.71,5.78,2.83,1.65,6.71,2.48,11.62,2.48h5.71v4.7h-90.16v-4.7h5.71c4.99,0,9.02-.89,12.06-2.67,2.2-1.18,3.94-3.22,5.21-6.1.93-2.03,1.4-7.36,1.4-16v-132.82h-12.44c-11.6,0-20.02,2.46-25.27,7.36-7.37,6.86-12.02,16.64-13.97,29.33h-4.83v-46.6h154.67Z"/>
    <path class="st6" d="M703.25,1134.62v-4.7h5.71c4.99,0,8.83-.78,11.49-2.35,2.67-1.57,4.63-3.7,5.9-6.41.76-1.78,1.14-7.11,1.14-16v-113.27c0-8.8-.47-14.31-1.4-16.51-.93-2.2-2.82-4.13-5.65-5.78-2.84-1.65-6.67-2.48-11.49-2.48h-5.71v-4.7h77.08c20.57,0,37.12,2.79,49.65,8.38,15.32,6.86,26.94,17.23,34.86,31.11,7.92,13.88,11.87,29.59,11.87,47.11,0,12.11-1.95,23.26-5.84,33.46-3.9,10.2-8.93,18.62-15.11,25.27-6.18,6.65-13.31,11.98-21.4,16-8.09,4.02-17.97,7.13-29.65,9.33-5.17,1.02-13.29,1.52-24.38,1.52h-77.08ZM768.9,972.21v134.35c0,7.11.34,11.47,1.02,13.08.68,1.61,1.82,2.84,3.43,3.68,2.29,1.27,5.59,1.9,9.9,1.9,14.14,0,24.93-4.83,32.38-14.48,10.16-13.04,15.24-33.27,15.24-60.7,0-22.1-3.47-39.75-10.41-52.95-5.5-10.33-12.57-17.35-21.21-21.08-6.09-2.62-16.21-3.89-30.35-3.81Z"/>
    <path class="st5" d="M893.72,962.43h88.89v4.7h-4.44c-6.69,0-11.28.7-13.78,2.1-2.5,1.4-4.28,3.32-5.33,5.78-1.06,2.46-1.59,8.59-1.59,18.41v84.32c0,15.41,1.16,25.61,3.49,30.6,2.33,5,6.16,9.14,11.49,12.44,5.33,3.3,12.06,4.95,20.19,4.95,9.31,0,17.25-2.1,23.81-6.29,6.56-4.19,11.47-9.97,14.73-17.33,3.26-7.36,4.89-20.19,4.89-38.48v-70.22c0-7.7-.81-13.21-2.41-16.51-1.61-3.3-3.64-5.59-6.1-6.86-3.81-1.95-9.19-2.92-16.13-2.92v-4.7h59.56v4.7h-3.56c-4.83,0-8.85.97-12.06,2.92-3.22,1.95-5.55,4.87-6.98,8.76-1.1,2.71-1.65,7.58-1.65,14.6v65.4c0,20.23-1.33,34.84-4,43.81-2.67,8.97-9.17,17.23-19.49,24.76-10.33,7.53-24.42,11.3-42.29,11.3-14.9,0-26.41-1.99-34.54-5.97-11.09-5.42-18.92-12.36-23.49-20.83-4.57-8.46-6.86-19.85-6.86-34.16v-84.32c0-9.9-.55-16.06-1.65-18.48-1.1-2.41-3.01-4.34-5.71-5.78-2.71-1.44-7.7-2.11-14.98-2.03v-4.7Z"/>
    <path class="st2" d="M1249.02,958.5v59.68h-4.95c-3.73-15.58-10.67-27.51-20.83-35.81-10.16-8.3-21.67-12.44-34.54-12.44-10.75,0-20.62,3.09-29.59,9.27-8.97,6.18-15.54,14.27-19.68,24.25-5.33,12.78-8,27.01-8,42.67s1.95,29.44,5.84,42.09c3.89,12.66,9.99,22.22,18.29,28.7,8.29,6.48,19.05,9.71,32.25,9.71,10.84,0,20.76-2.37,29.78-7.11,9.02-4.74,18.52-12.91,28.51-24.51v14.86c-9.65,10.08-19.71,17.38-30.16,21.9-10.46,4.53-22.67,6.79-36.63,6.79-18.37,0-34.69-3.68-48.95-11.05-14.27-7.37-25.27-17.95-33.02-31.75-7.75-13.8-11.62-28.49-11.62-44.06,0-16.42,4.29-32,12.89-46.73,8.59-14.73,20.19-26.16,34.79-34.29,14.6-8.13,30.12-12.19,46.54-12.19,12.11,0,24.89,2.62,38.35,7.87,7.79,3.05,12.74,4.57,14.86,4.57,2.71,0,5.06-.99,7.05-2.98,1.99-1.99,3.28-5.14,3.87-9.46h4.95Z"/>
    <g>
      <path class="st7" d="M462.74,1276.75c-22.11,0-36.03-15.47-36.03-40.26s13.87-39.56,35.87-39.56c17.19,0,30.2,10.17,32.87,25.59h-12.31c-2.89-9.58-10.44-15.1-20.5-15.1-14.78,0-23.66,10.81-23.66,28.96s9.16,29.87,23.88,29.87c12.53,0,21.2-8.03,21.36-19.75v-1.34h-19.97v-9.69h31.8v7.87c0,20.93-12.37,33.41-33.3,33.41Z"/>
      <path class="st9" d="M552.65,1275.46h-11.99v-77.25h29.93c15.9,0,25.8,9.21,25.8,23.61,0,10.44-5.57,18.9-14.99,22.06l17.29,31.59h-13.81l-15.74-29.71h-16.49v29.71ZM552.65,1236.06h16.81c9.26,0,14.56-5.09,14.56-13.92s-5.62-13.87-14.88-13.87h-16.49v27.79Z"/>
      <path class="st19" d="M710.45,1236.86c0,24.57-13.97,39.88-36.19,39.88s-36.19-15.31-36.19-39.88,13.92-39.94,36.19-39.94,36.19,15.36,36.19,39.94ZM650.32,1236.86c0,17.99,9.26,29.34,23.93,29.34s23.88-11.35,23.88-29.34-9.21-29.39-23.88-29.39-23.93,11.35-23.93,29.39Z"/>
      <path class="st13" d="M766.73,1247.3c0,11.03,6.96,18.79,19.27,18.79s19.33-7.76,19.33-18.79v-49.09h11.94v50.11c0,16.65-11.89,28.43-31.27,28.43s-31.27-11.78-31.27-28.43v-50.11h11.99v49.09Z"/>
      <path class="st16" d="M893.37,1198.21c14.99,0,25.43,10.33,25.43,25.38s-10.65,25.48-25.81,25.48h-16.6v26.39h-11.99v-77.25h28.96ZM876.4,1239.01h13.76c10.44,0,16.38-5.62,16.38-15.36s-5.94-15.31-16.33-15.31h-13.81v30.68Z"/>
    </g>
    <polygon class="st8" points="1348.09 1234.48 987.56 1243.06 987.56 1223.87 1348.09 1233.55 1348.09 1233.47 1348.09 1234.48"/>
    <polygon class="st17" points="0 1234.48 360.53 1243.06 360.53 1223.87 0 1233.55 0 1233.47 0 1234.48"/>
  </g>
</svg>